<svg xmlns="http://www.w3.org/2000/svg" viewBox="0 0 48 48" fill="none">
  <defs>
    <linearGradient id="glassGrad" x1="0" y1="0" x2="1" y2="1">
      <stop offset="0%" stop-color="#00E676" stop-opacity="0.15"/>
      <stop offset="100%" stop-color="#00E676" stop-opacity="0.05"/>
    </linearGradient>
  </defs>
  <!-- Greenhouse dome -->
  <path d="M6 38V22Q6 6 24 6Q42 6 42 22v16" stroke="#00E676" stroke-width="2" stroke-linecap="round" stroke-linejoin="round" fill="url(#glassGrad)"/>
  <!-- Base line -->
  <line x1="4" y1="38" x2="44" y2="38" stroke="#00E676" stroke-width="2" stroke-linecap="round"/>
  <!-- Glass panel lines -->
  <line x1="24" y1="6" x2="24" y2="38" stroke="#00E676" stroke-width="1" opacity="0.3"/>
  <path d="M6 22h36" stroke="#00E676" stroke-width="1" opacity="0.3"/>
  <path d="M10 14q14-10 28 0" stroke="#00E676" stroke-width="1" opacity="0.2"/>
  <!-- Door -->
  <rect x="20" y="28" width="8" height="10" rx="1" stroke="#00E676" stroke-width="1.5" fill="none" opacity="0.5"/>
  <!-- Plants inside -->
  <path d="M12 38v-6" stroke="#4CAF50" stroke-width="1.5" stroke-linecap="round"/>
  <path d="M12 32c-3-1-4-4-4-4s3 0 4 2" fill="#4CAF50" opacity="0.7"/>
  <path d="M12 34c2-1 4-3 4-3s-2 1-4 1.5" fill="#00E676" opacity="0.6"/>
  <path d="M36 38v-5" stroke="#4CAF50" stroke-width="1.5" stroke-linecap="round"/>
  <path d="M36 33c3-1 4-3 4-3s-2 0-4 1.5" fill="#00E676" opacity="0.6"/>
  <path d="M36 35c-2-1-3-3-3-3s1.5 1 3 1.5" fill="#4CAF50" opacity="0.5"/>
</svg>
