<svg xmlns="http://www.w3.org/2000/svg" viewBox="0 0 48 48" fill="none">
  <!-- Gear outer shape -->
  <path d="M24 6l3 4.2a14 14 0 0 1 4.3 1.8l4.8-1.7 2.6 4.5-3.2 3.7a14 14 0 0 1 .7 4.5H41l0 5.2h-4.8a14 14 0 0 1-.7 4.5l3.2 3.7-2.6 4.5-4.8-1.7a14 14 0 0 1-4.3 1.8L24 42l-3-4.2a14 14 0 0 1-4.3-1.8l-4.8 1.7-2.6-4.5 3.2-3.7a14 14 0 0 1-.7-4.5H7v-5.2h4.8a14 14 0 0 1 .7-4.5l-3.2-3.7 2.6-4.5 4.8 1.7a14 14 0 0 1 4.3-1.8L24 6z" stroke="#78909C" stroke-width="2" stroke-linecap="round" stroke-linejoin="round"/>
  <!-- Center circle -->
  <circle cx="24" cy="24" r="6" stroke="#78909C" stroke-width="2"/>
  <circle cx="24" cy="24" r="2" fill="#78909C" opacity="0.4"/>
</svg>
