<svg xmlns="http://www.w3.org/2000/svg" viewBox="0 0 48 48" fill="none">
  <defs>
    <linearGradient id="soilGrad" x1="0" y1="0" x2="0" y2="1">
      <stop offset="0%" stop-color="#A1887F"/>
      <stop offset="100%" stop-color="#8D6E63"/>
    </linearGradient>
  </defs>
  <!-- Soil ground -->
  <path d="M6 30h36v10a2 2 0 0 1-2 2H8a2 2 0 0 1-2-2V30z" fill="url(#soilGrad)" opacity="0.3"/>
  <line x1="6" y1="30" x2="42" y2="30" stroke="#8D6E63" stroke-width="2" stroke-linecap="round"/>
  <!-- Plant stem -->
  <path d="M24 30V16" stroke="#4CAF50" stroke-width="2" stroke-linecap="round"/>
  <!-- Leaves -->
  <path d="M24 20c-6-2-8-7-8-7s5 0 8 4" fill="#4CAF50" opacity="0.7" stroke="#4CAF50" stroke-width="0.5"/>
  <path d="M24 16c5-3 9-2 9-2s-2 5-6 5" fill="#00E676" opacity="0.6" stroke="#00E676" stroke-width="0.5"/>
  <path d="M24 24c-4-1-6-5-6-5s4 0 6 3" fill="#4CAF50" opacity="0.5" stroke="#4CAF50" stroke-width="0.5"/>
  <!-- Moisture drops underground -->
  <path d="M15 34c0 0-1.5-2.5-1.5-3.5a1.5 1.5 0 0 1 3 0C16.5 31.5 15 34 15 34z" fill="#42A5F5" opacity="0.5"/>
  <path d="M33 36c0 0-1.2-2-1.2-2.8a1.2 1.2 0 0 1 2.4 0C34.2 34 33 36 33 36z" fill="#42A5F5" opacity="0.4"/>
  <path d="M24 38c0 0-1-1.8-1-2.5a1 1 0 0 1 2 0c0 .7-1 2.5-1 2.5z" fill="#42A5F5" opacity="0.35"/>
</svg>
