<svg xmlns="http://www.w3.org/2000/svg" viewBox="0 0 400 300" fill="none">
  <!-- Bell shape -->
  <path d="M175 120c0-8 0-16 0-20a25 25 0 0 1 50 0c0 4 0 12 0 20l6 8H169l6-8z" stroke="#333333" stroke-width="2" stroke-linecap="round" stroke-linejoin="round" opacity="0.4"/>
  <path d="M190 132a10 10 0 0 0 20 0" stroke="#333333" stroke-width="2" stroke-linecap="round" opacity="0.3"/>
  <!-- Checkmark circle -->
  <circle cx="200" cy="108" r="18" stroke="#00E676" stroke-width="2" opacity="0.6"/>
  <polyline points="191,108 198,115 212,101" stroke="#00E676" stroke-width="2.5" stroke-linecap="round" stroke-linejoin="round" opacity="0.8"/>
  <!-- Radiating calm lines -->
  <line x1="200" y1="82" x2="200" y2="76" stroke="#00E676" stroke-width="1.5" stroke-linecap="round" opacity="0.2"/>
  <line x1="218" y1="86" x2="222" y2="82" stroke="#00E676" stroke-width="1.5" stroke-linecap="round" opacity="0.15"/>
  <line x1="182" y1="86" x2="178" y2="82" stroke="#00E676" stroke-width="1.5" stroke-linecap="round" opacity="0.15"/>
  <!-- Subtle status text line placeholders -->
  <rect x="155" y="170" width="90" height="4" rx="2" fill="#222222"/>
  <rect x="170" y="185" width="60" height="3" rx="1.5" fill="#1A1A1A"/>
  <!-- Decorative dots -->
  <circle cx="140" cy="150" r="2" fill="#00E676" opacity="0.1"/>
  <circle cx="260" cy="100" r="3" fill="#00E676" opacity="0.08"/>
</svg>
