<svg xmlns="http://www.w3.org/2000/svg" viewBox="0 0 1200 630">
  <defs>
    <linearGradient id="bg" x1="0%" y1="0%" x2="100%" y2="100%">
      <stop offset="0%" style="stop-color:#0A1A0F"/>
      <stop offset="50%" style="stop-color:#0D2818"/>
      <stop offset="100%" style="stop-color:#0A1A0F"/>
    </linearGradient>
    <linearGradient id="leafGrad" x1="0%" y1="0%" x2="100%" y2="100%">
      <stop offset="0%" style="stop-color:#00E676"/>
      <stop offset="100%" style="stop-color:#2E7D32"/>
    </linearGradient>
    <radialGradient id="glow" cx="50%" cy="50%" r="50%">
      <stop offset="0%" style="stop-color:#00E676;stop-opacity:0.15"/>
      <stop offset="100%" style="stop-color:#00E676;stop-opacity:0"/>
    </radialGradient>
  </defs>
  <!-- Background -->
  <rect width="1200" height="630" fill="url(#bg)"/>
  <!-- Grid lines -->
  <g stroke="#00E676" stroke-width="0.3" opacity="0.08">
    <line x1="0" y1="0" x2="1200" y2="630"/>
    <line x1="0" y1="630" x2="1200" y2="0"/>
    <line x1="600" y1="0" x2="600" y2="630"/>
    <line x1="0" y1="315" x2="1200" y2="315"/>
  </g>
  <!-- Glow effect -->
  <ellipse cx="600" cy="315" rx="400" ry="250" fill="url(#glow)"/>
  <!-- Decorative circles (constellation) -->
  <circle cx="150" cy="100" r="2" fill="#00BCD4" opacity="0.6"/>
  <circle cx="200" cy="80" r="1.5" fill="#00BCD4" opacity="0.4"/>
  <circle cx="1050" cy="530" r="2" fill="#00BCD4" opacity="0.5"/>
  <circle cx="1000" cy="500" r="1.5" fill="#00BCD4" opacity="0.3"/>
  <line x1="150" y1="100" x2="200" y2="80" stroke="#00BCD4" stroke-width="0.5" opacity="0.3"/>
  <!-- Logo icon -->
  <g transform="translate(440, 140) scale(1.8)">
    <path d="M 25 95 Q 25 40 60 25 Q 78 18 88 38 Q 92 52 78 60 Q 65 66 55 80 Q 50 88 45 95 Z" fill="url(#leafGrad)" />
    <path d="M 45 95 Q 50 68 65 53" stroke="#0A1A0F" stroke-width="2" fill="none" opacity="0.5"/>
    <circle cx="65" cy="53" r="3" fill="#0A1A0F" opacity="0.5"/>
  </g>
  <!-- Title -->
  <text x="600" y="430" font-family="'Segoe UI', system-ui, sans-serif" font-size="64" font-weight="700" fill="#E0E0E0" text-anchor="middle" letter-spacing="-1">
    Echo<tspan fill="#00E676">Smart</tspan>
  </text>
  <!-- Subtitle -->
  <text x="600" y="475" font-family="'Segoe UI', system-ui, sans-serif" font-size="20" fill="#78909C" text-anchor="middle" letter-spacing="4">
    SMART GREENHOUSE IoT PLATFORM
  </text>
  <!-- Bottom tagline -->
  <text x="600" y="560" font-family="'Segoe UI', system-ui, sans-serif" font-size="16" fill="#546E7A" text-anchor="middle" letter-spacing="1">
    Monitoreo ambiental inteligente para invernaderos · Agricultura de precisión
  </text>
</svg>
